<svg width="13" height="20" viewBox="0 0 13 20" fill="none" xmlns="http://www.w3.org/2000/svg">
<path d="M11.7992 9.2196L2.70949 0.31951C2.49925 0.113495 2.21861 0 1.91936 0C1.62012 0 1.33948 0.113495 1.12924 0.31951L0.459843 0.974789C0.0242613 1.40178 0.0242613 2.09576 0.459843 2.52209L8.09273 9.99585L0.451374 17.4779C0.241139 17.6839 0.125061 17.9586 0.125061 18.2514C0.125061 18.5446 0.241139 18.8192 0.451374 19.0254L1.12077 19.6805C1.33117 19.8865 1.61165 20 1.9109 20C2.21014 20 2.49079 19.8865 2.70102 19.6805L11.7992 10.7723C12.01 10.5656 12.1257 10.2897 12.1251 9.99634C12.1257 9.70187 12.01 9.4261 11.7992 9.2196Z" fill="#34BEEE"/>
</svg>
