<svg width="12" height="20" viewBox="0 0 12 20" fill="none" xmlns="http://www.w3.org/2000/svg">
<path d="M0.325817 10.7804L9.41557 19.6805C9.62581 19.8865 9.90645 20 10.2057 20C10.5049 20 10.7856 19.8865 10.9958 19.6805L11.6652 19.0252C12.1008 18.5982 12.1008 17.9043 11.6652 17.4779L4.03233 10.0042L11.6737 2.5221C11.8839 2.31609 12 2.04145 12 1.74861C12 1.45544 11.8839 1.18081 11.6737 0.974633L11.0043 0.319517C10.7939 0.113502 10.5134 7.65501e-06 10.2142 7.62939e-06C9.91492 7.60378e-06 9.63428 0.113502 9.42404 0.319517L0.325817 9.22774C0.115084 9.4344 -0.00066138 9.71033 2.84345e-06 10.0037C-0.000661432 10.2981 0.115084 10.5739 0.325817 10.7804Z" fill="#D4E9F9"/>
</svg>
