<svg width="80" height="87" viewBox="0 0 80 87" fill="none" xmlns="http://www.w3.org/2000/svg">
<path d="M72.0452 71.1208C65.0848 68.4481 58.1243 65.7654 51.1638 63.0927C49.8481 70.7766 48.5323 78.4503 47.2166 86.1341C43.661 78.916 40.1155 71.6978 36.56 64.4797C30.1519 69.4504 23.7338 74.4109 17.3258 79.3816C19.3145 71.7484 21.3133 64.1152 23.3019 56.482C18.049 54.5079 12.796 52.5338 7.55306 50.5698C12.0929 48.3224 16.6328 46.0851 21.1626 43.8376C14.1117 39.8084 7.05084 35.7691 0 31.7399L29.951 30.6769L28.4143 0.326294C32.5223 6.83578 36.6403 13.3453 40.7483 19.8446C46.8048 14.6917 52.8612 9.52866 58.9278 4.37574C57.0496 12.6062 55.1714 20.8368 53.2931 29.0673C59.8217 27.1741 66.3503 25.2709 72.8788 23.3778C69.8255 28.6826 66.7721 33.9874 63.7188 39.2921C69.1425 39.7781 74.5763 40.2741 80 40.76L60.6252 53.7183C64.4319 59.5191 68.2385 65.3199 72.0552 71.1208H72.0452Z" fill="white"/>
</svg>
