<svg width="171" height="185" viewBox="0 0 171 185" fill="none" xmlns="http://www.w3.org/2000/svg">
<path d="M153.997 152.273C139.119 146.542 124.241 140.79 109.363 135.059C106.55 151.535 103.738 167.99 100.925 184.467C93.3254 168.989 85.7469 153.511 78.1469 138.033C64.4497 148.691 50.7311 159.329 37.0339 169.987C41.2847 153.619 45.5571 137.251 49.8079 120.883C38.5797 116.65 27.3514 112.417 16.1447 108.205C25.8486 103.386 35.5525 98.5886 45.235 93.7693C30.1638 85.1294 15.0712 76.4677 0 67.8278L64.0203 65.5485L60.7357 0.466797C69.5164 14.4253 78.3186 28.3837 87.0994 42.3205C100.045 31.2709 112.991 20.1997 125.958 9.15014C121.943 26.799 117.929 44.4479 113.914 62.0968C127.869 58.0374 141.824 53.9562 155.778 49.8968C149.252 61.2719 142.725 72.6471 136.199 84.0223C147.792 85.0643 159.407 86.128 171 87.17L129.586 114.957C137.723 127.396 145.86 139.834 154.018 152.273H153.997Z" fill="#F1F9FF"/>
</svg>
